<svg xmlns="http://www.w3.org/2000/svg" width="240" height="240" fill="none"><mask id="a" width="240" height="240" x="0" y="0" maskUnits="userSpaceOnUse" style="mask-type:alpha"><path fill="#EBEBEB" d="M240 120c0 66.324-53.676 120-120 120S0 186.324 0 120 53.676 0 120 0s120 53.838 120 120Z"/></mask><g mask="url(#a)"><path fill="#5787FF" d="M240 120c0 66.324-53.676 120-120 120S0 186.324 0 120 53.676 0 120 0s120 53.838 120 120Z"/><rect width="150" height="137" x="45" y="104" fill="url(#b)" rx="4"/><path d="M45 109a5 5 0 0 1 5-5h140a5 5 0 0 1 5 5v126a5 5 0 0 1-5 5H50a5 5 0 0 1-5-5V109Z" opacity=".35" style="mix-blend-mode:overlay"/><rect width="36" height="45" x="58" y="169" fill="#2F66F0" rx="2"/><mask id="c" width="36" height="45" x="58" y="169" maskUnits="userSpaceOnUse" style="mask-type:alpha"><rect width="36" height="45" x="58" y="169" fill="#2F66F0" rx="2"/></mask><g mask="url(#c)"><g filter="url(#d)"><path fill="#F5F5F5" d="m93.493 198.5-.532-26.673a2 2 0 0 0-1.952-1.96l-17.509-.415 21-.952v12.116L93.493 198.5Z"/></g><path d="M57 167h37.5v44.5a4 4 0 0 1-4 4H61a4 4 0 0 1-4-4V167Z" opacity=".35" style="mix-blend-mode:overlay"/></g><rect width="36" height="45" x="99" y="169" fill="#2F66F0" rx="2"/><mask id="e" width="36" height="45" x="99" y="169" maskUnits="userSpaceOnUse" style="mask-type:alpha"><rect width="36" height="45" x="99" y="169" fill="#2F66F0" rx="2"/></mask><g mask="url(#e)"><g filter="url(#f)"><path fill="#F5F5F5" d="m134.493 198.5-.532-26.673a2 2 0 0 0-1.952-1.96l-17.509-.415 21-.952v12.116l-1.007 17.884Z"/></g><path d="M98 167h37.5v44.5a4 4 0 0 1-4 4H102a4 4 0 0 1-4-4V167Z" opacity=".35" style="mix-blend-mode:overlay"/></g><path fill="#2F66F0" d="M148 171a2 2 0 0 1 2-2h32a2 2 0 0 1 2 2v68h-36v-68Z"/><path d="M148 169h36v66a4 4 0 0 1-4 4h-28a4 4 0 0 1-4-4v-66Z" opacity=".35" style="mix-blend-mode:overlay"/><path fill="#2F66F0" d="M45 121h150l11.059 31.334a2 2 0 0 1-1.886 2.666H34.906a2 2 0 0 1-1.868-2.714L45 121Z"/><mask id="h" width="175" height="34" x="32" y="121" maskUnits="userSpaceOnUse" style="mask-type:alpha"><path fill="#2F66F0" d="M45 121h150l11.059 31.334a2 2 0 0 1-1.886 2.666H34.906a2 2 0 0 1-1.868-2.714L45 121Z"/></mask><g filter="url(#g)" mask="url(#h)"><path fill="#F5F5F5" d="m175.501 154.977 26.564-1.811a2 2 0 0 0 1.793-2.522L198.5 131l8.501 23.977h-31.5Z"/></g><path d="M45 121h150l10.118 28.669c.919 2.602-1.012 5.331-3.772 5.331H37.812c-2.804 0-4.738-2.81-3.736-5.429L45 121Z" opacity=".35" style="mix-blend-mode:overlay"/></g><g filter="url(#i)"><path fill="#fff" fill-rule="evenodd" d="M98 24c-6.627 0-12 5.373-12 12v34c0 6.627 5.373 12 12 12h12.93a2 2 0 0 1 1.664.89l5.742 8.614a2 2 0 0 0 3.328 0l5.742-8.613A2 2 0 0 1 129.07 82H142c6.627 0 12-5.373 12-12V36c0-6.627-5.373-12-12-12H98Z" clip-rule="evenodd"/></g><path fill="#5787FF" fill-rule="evenodd" d="m129.355 51.118 3.031.546a1.76 1.76 0 0 1 1.023.64c.228.316.332.791.268 1.145l-2.71 15.037a1.46 1.46 0 0 1-.65.979 1.576 1.576 0 0 1-1.182.243l-24.433-4.402a1.757 1.757 0 0 1-1.023-.641 1.635 1.635 0 0 1-.268-1.144l2.71-15.037c.08-.443.327-.763.65-.98a1.577 1.577 0 0 1 1.182-.243l3.032.546 18.37 3.31Zm-4.409-.795 1.291-7.164c.447-2.477-1.208-4.876-3.779-5.34-2.572-.463-4.96 1.208-5.406 3.684l-1.291 7.165c-1.004-.18-1.028-.185-2.296-.414-1.269-.228-1.663-.286-2.297-.413l1.291-7.165c.893-4.954 5.759-8.278 10.811-7.367 5.052.91 8.453 5.724 7.56 10.677l-1.291 7.165-4.593-.828Z" clip-rule="evenodd"/><rect width="6" height="9" x="116.422" y="53.372" fill="url(#j)" rx="3" transform="rotate(10.215 116.422 53.372)"/><path d="m116.422 53.372 5.905 1.064-1.064 5.905a3 3 0 0 1-5.905-1.064l1.064-5.905Z" opacity=".35" style="mix-blend-mode:overlay"/><path d="M97.863 34h44.571l3.144 32.616A4 4 0 0 1 141.596 71H98.439a4 4 0 0 1-3.978-4.415L97.863 34Z" opacity=".35" style="mix-blend-mode:overlay"/><defs><filter id="d" width="25" height="34" x="71.5" y="166.5" color-interpolation-filters="sRGB" filterUnits="userSpaceOnUse"><feFlood flood-opacity="0" result="BackgroundImageFix"/><feBlend in="SourceGraphic" in2="BackgroundImageFix" result="shape"/><feGaussianBlur result="effect1_foregroundBlur_0_1" stdDeviation="1"/></filter><filter id="f" width="25" height="34" x="112.5" y="166.5" color-interpolation-filters="sRGB" filterUnits="userSpaceOnUse"><feFlood flood-opacity="0" result="BackgroundImageFix"/><feBlend in="SourceGraphic" in2="BackgroundImageFix" result="shape"/><feGaussianBlur result="effect1_foregroundBlur_0_1" stdDeviation="1"/></filter><filter id="g" width="35.5" height="27.977" x="173.5" y="129" color-interpolation-filters="sRGB" filterUnits="userSpaceOnUse"><feFlood flood-opacity="0" result="BackgroundImageFix"/><feBlend in="SourceGraphic" in2="BackgroundImageFix" result="shape"/><feGaussianBlur result="effect1_foregroundBlur_0_1" stdDeviation="1"/></filter><filter id="i" width="84" height="84.394" x="78" y="16" color-interpolation-filters="sRGB" filterUnits="userSpaceOnUse"><feFlood flood-opacity="0" result="BackgroundImageFix"/><feColorMatrix in="SourceAlpha" result="hardAlpha" values="0 0 0 0 0 0 0 0 0 0 0 0 0 0 0 0 0 0 127 0"/><feOffset/><feGaussianBlur stdDeviation="4"/><feComposite in2="hardAlpha" operator="out"/><feColorMatrix values="0 0 0 0 1 0 0 0 0 1 0 0 0 0 1 0 0 0 0.45 0"/><feBlend in2="BackgroundImageFix" result="effect1_dropShadow_0_1"/><feBlend in="SourceGraphic" in2="effect1_dropShadow_0_1" result="shape"/></filter><linearGradient id="b" x1="221" x2="205.31" y1="34" y2="319.167" gradientUnits="userSpaceOnUse"><stop stop-opacity=".076"/><stop offset=".409" stop-opacity=".71"/><stop offset=".994" stop-opacity="0"/></linearGradient><linearGradient id="j" x1="119.422" x2="133.688" y1="43.292" y2="52.794" gradientUnits="userSpaceOnUse"><stop/><stop offset="1" stop-opacity="0"/></linearGradient></defs></svg>